<?xml version="1.0" encoding="UTF-8" standalone="no"?>
<!-- Created with Inkscape (http://www.inkscape.org/) -->

<svg
   xmlns:dc="http://purl.org/dc/elements/1.1/"
   xmlns:cc="http://creativecommons.org/ns#"
   xmlns:rdf="http://www.w3.org/1999/02/22-rdf-syntax-ns#"
   xmlns:svg="http://www.w3.org/2000/svg"
   xmlns="http://www.w3.org/2000/svg"
   xmlns:sodipodi="http://sodipodi.sourceforge.net/DTD/sodipodi-0.dtd"
   xmlns:inkscape="http://www.inkscape.org/namespaces/inkscape"
   width="24"
   height="24"
   id="svg2"
   version="1.1"
   inkscape:version="0.48.3.1 r9886"
   sodipodi:docname="fullscreen.svg">
  <defs
     id="defs4" />
  <sodipodi:namedview
     id="base"
     pagecolor="#ffffff"
     bordercolor="#666666"
     borderopacity="1.0"
     inkscape:pageopacity="0.0"
     inkscape:pageshadow="2"
     inkscape:zoom="22.4"
     inkscape:cx="0.35856624"
     inkscape:cy="5.8664519"
     inkscape:document-units="px"
     inkscape:current-layer="layer1"
     showgrid="false"
     inkscape:snap-bbox="true"
     inkscape:window-width="925"
     inkscape:window-height="1028"
     inkscape:window-x="66"
     inkscape:window-y="24"
     inkscape:window-maximized="0" />
  <metadata
     id="metadata7">
    <rdf:RDF>
      <cc:Work
         rdf:about="">
        <dc:format>image/svg+xml</dc:format>
        <dc:type
           rdf:resource="http://purl.org/dc/dcmitype/StillImage" />
        <dc:title></dc:title>
      </cc:Work>
    </rdf:RDF>
  </metadata>
  <g
     inkscape:label="Layer 1"
     inkscape:groupmode="layer"
     id="layer1"
     transform="translate(0,-1028.3622)">
    <path
       style="fill:#4d4d4d;stroke:none;opacity:0.75"
       d="M 0,0 0,9 3.5,5.5 7,9 9,7 5.5,3.5 9,0 z"
       id="path2996"
       inkscape:connector-curvature="0"
       transform="translate(0,1028.3622)" />
    <path
       inkscape:connector-curvature="0"
       id="path2998"
       d="m 0,1052.3622 9,0 -3.5,-3.5 3.5,-3.5 -2,-2 -3.5,3.5 -3.5,-3.5 z"
       style="fill:#4d4d4d;stroke:none;opacity:0.75" />
    <path
       style="fill:#4d4d4d;stroke:none;opacity:0.75"
       d="m 24,1052.3622 0,-9 -3.5,3.5 -3.5,-3.5 -2,2 3.5,3.5 -3.5,3.5 z"
       id="path3000"
       inkscape:connector-curvature="0" />
    <path
       inkscape:connector-curvature="0"
       id="path3002"
       d="m 24,1028.3622 -9,0 3.5,3.5 -3.5,3.5 2,2 3.5,-3.5 3.5,3.5 z"
       style="fill:#4d4d4d;stroke:none;opacity:0.75" />
  </g>
</svg>
