<?xml version="1.0" encoding="UTF-8" standalone="no"?>
<!-- Created with Inkscape (http://www.inkscape.org/) -->

<svg
   xmlns:dc="http://purl.org/dc/elements/1.1/"
   xmlns:cc="http://creativecommons.org/ns#"
   xmlns:rdf="http://www.w3.org/1999/02/22-rdf-syntax-ns#"
   xmlns:svg="http://www.w3.org/2000/svg"
   xmlns="http://www.w3.org/2000/svg"
   version="1.1"
   width="680"
   height="600"
   id="svg2"
   xml:space="preserve"><defs
     id="defs18" /><metadata
     id="metadata4"><rdf:RDF><cc:Work
         rdf:about=""><dc:format>image/svg+xml</dc:format><dc:type
           rdf:resource="http://purl.org/dc/dcmitype/StillImage" /><dc:title></dc:title></cc:Work></rdf:RDF></metadata><path
     d="m 635.88869,600 c 15.17875,-0.35018 29.8575,-8.39213 38.09625,-22.4475 8.1065,-14.20375 7.74275,-30.91375 0.52913,-44.36625 L 378.47657,21.648747 C 370.66319,8.7812475 356.34782,0.1124975 340.11532,-0.0062525 c -16.4575,0.11875 -30.775,8.787375 -38.62625,21.6549995 L 5.4515662,533.18625 C -1.7188088,546.64 -2.0808088,563.35 5.9806912,577.5525 14.263941,591.6075 28.943191,599.65 44.078191,600 H 635.90319"
     id="path8"
     style="fill:#ec1d24;fill-opacity:1;fill-rule:nonzero" /><path
     d="M 340.11369,75.78751 71.058691,540.84501 H 608.90869 l -268.7875,-465.05"
     id="path10"
     style="fill:#ffffff;fill-rule:nonzero" /><path
     d="m 346.20119,420.95001 43.6525,-175.6125 c 0,0 1.885,-5.1585 1.85188,-12.67625 0.0331,-28.8225 -23.63,-51.2675 -51.58875,-51.2325 -28.185,-0.0351 -51.84875,22.41 -51.85375,51.2325 0.005,7.51762 1.85187,12.67625 1.85187,12.67625 l 43.6525,175.6125 h 12.43425"
     id="path12"
     style="fill:#000000;fill-rule:nonzero" /><path
     d="m 340.11369,441.28751 c 21.9275,-0.0417 39.79375,17.7925 39.68375,39.87625 0.11025,21.91875 -17.75625,39.75375 -39.68375,39.87625 -22.155,-0.12324 -40.02125,-17.9575 -39.94875,-39.87625 -0.0727,-22.08375 17.79375,-39.91875 39.94875,-39.87625"
     id="path14"
     style="fill:#000000;fill-rule:nonzero" /></svg>